<?xml version="1.0" encoding="utf-8"?>
<!-- Generator: Adobe Illustrator 16.0.0, SVG Export Plug-In . SVG Version: 6.00 Build 0)  -->
<!DOCTYPE svg PUBLIC "-//W3C//DTD SVG 1.1//EN" "http://www.w3.org/Graphics/SVG/1.1/DTD/svg11.dtd">
<svg version="1.1" id="Layer_1" xmlns="http://www.w3.org/2000/svg" xmlns:xlink="http://www.w3.org/1999/xlink" x="0px" y="0px"
	 width="1024px" height="768px" viewBox="384 512 1024 768" enable-background="new 384 512 1024 768" xml:space="preserve">
<path fill="#FFFFFF" d="M1408,1184V748c-20.667,23.333-42,41.667-64,55c-22.667,14.667-66.833,43-132.5,85s-116.167,75-151.5,99
	c-65.333,46-120,69-164,69s-98.667-23-164-69c-31.333-21.333-78.667-52.167-142-92.5S479.333,823.333,448,802
	c-8-5.333-19-14.333-33-27s-24.333-21.667-31-27v436c0,26.667,9.333,49.333,28,68s41.333,28,68,28h832c26.667,0,49.333-9.333,68-28
	S1408,1210.667,1408,1184z M1408,611c0-27.333-9.167-50.667-27.5-70s-41.167-29-68.5-29H480c-26.667,0-49.333,9.333-68,28
	s-28,41.333-28,68c0,24.667,10.167,50.167,30.5,76.5s42.833,47.833,67.5,64.5c31.333,21.333,77.167,51,137.5,89S723,903.667,749,921
	c2,1.333,7.667,5.167,17,11.5s16.333,11,21,14s11.667,7.333,21,13s17.167,10,23.5,13s13.5,6.167,21.5,9.5s15.5,5.833,22.5,7.5
	s13.833,2.5,20.5,2.5s13.5-0.833,20.5-2.5s14.5-4.167,22.5-7.5s15.167-6.5,21.5-9.5s14.167-7.333,23.5-13s16.333-10,21-13
	s11.667-7.667,21-14s15-10.167,17-11.5l267-174c23.333-15.333,45.5-36.167,66.5-62.5S1408,633.667,1408,611z"/>
</svg>
