<?xml version="1.0" encoding="utf-8"?>
<!-- Generator: Adobe Illustrator 16.0.0, SVG Export Plug-In . SVG Version: 6.00 Build 0)  -->
<!DOCTYPE svg PUBLIC "-//W3C//DTD SVG 1.1//EN" "http://www.w3.org/Graphics/SVG/1.1/DTD/svg11.dtd">
<svg version="1.1" id="Layer_1" xmlns="http://www.w3.org/2000/svg" xmlns:xlink="http://www.w3.org/1999/xlink" x="0px" y="0px"
	 width="1024px" height="1024px" viewBox="384 384 1024 1024" enable-background="new 384 384 1024 1024" xml:space="preserve">
<path fill="#FFFFFF" d="M1408,1193c0-7.333-0.667-12.667-2-16s-7.333-8.833-18-16.5s-24.167-16-40.5-25s-32.167-17.833-47.5-26.5
	s-30.5-17-45.5-25s-24.5-13-28.5-15c-3.333-2-9.667-6.333-19-13s-17.667-11.667-25-15s-14.333-5-21-5c-10,0-22.167,6.833-36.5,20.5
	s-27.5,28.667-39.5,45s-24.833,31.333-38.5,45s-24.833,20.5-33.5,20.5c-4.667,0-10.167-1.167-16.5-3.5S985,1159,981,1157
	s-9.667-5.167-17-9.5s-12-7.167-14-8.5c-66-36.667-122.667-78.833-170-126.5S690.333,908,653,842c-1.333-2-4.167-6.667-8.5-14
	s-7.5-13-9.5-17s-4.167-9.167-6.5-15.5S625,783.667,625,779c0-8.667,6.833-19.833,20.5-33.5s28.667-26.5,45-38.5
	s31.333-25.167,45-39.5S756,641,756,631c0-6.667-1.667-13.667-5-21s-8.333-15.667-15-25s-11-15.667-13-19c-2-4-7-13.5-15-28.5
	s-16.333-30.167-25-45.5s-17.5-31.167-26.5-47.5s-17.333-29.833-25-40.5s-13.167-16.667-16.5-18s-8.667-2-16-2
	c-32,0-65.667,7.333-101,22c-30.667,14-57.333,45.5-80,94.5S384,593,384,631c0,10.667,0.833,22,2.5,34s3.333,22.167,5,30.5
	s4.667,19.333,9,33s7.667,23.5,10,29.5s6.5,17,12.5,33s9.667,26,11,30c40,109.333,112.167,216.167,216.5,320.5
	S861.667,1318,971,1358c4,1.333,14,5,30,11s27,10.167,33,12.5s15.833,5.667,29.5,10s24.667,7.333,33,9s18.5,3.333,30.5,5
	s23.333,2.5,34,2.5c38,0,81.5-11.333,130.5-34s80.5-49.333,94.5-80C1400.667,1258.667,1408,1225,1408,1193z"/>
</svg>
